<mxfile host="app.diagrams.net" modified="2023-05-06T17:18:00.464Z" agent="Mozilla/5.0 (Windows NT 10.0; Win64; x64) AppleWebKit/537.36 (KHTML, like Gecko) Chrome/112.0.0.0 Safari/537.36" etag="zCSkqkytcJqb6rummekL" version="21.2.9" type="device">
  <diagram name="Σελίδα-1" id="h-o1yX0LM2CVH-15DDE9">
    <mxGraphModel dx="1304" dy="639" grid="1" gridSize="10" guides="1" tooltips="1" connect="1" arrows="1" fold="1" page="1" pageScale="1" pageWidth="1654" pageHeight="1169" math="0" shadow="0">
      <root>
        <mxCell id="0" />
        <mxCell id="1" parent="0" />
        <mxCell id="8t45LIVKKecfM5tV3rzv-11" value="" style="rounded=0;orthogonalLoop=1;jettySize=auto;html=1;strokeColor=#FF0000;" parent="1" source="8t45LIVKKecfM5tV3rzv-1" target="8t45LIVKKecfM5tV3rzv-10" edge="1">
          <mxGeometry relative="1" as="geometry" />
        </mxCell>
        <mxCell id="8t45LIVKKecfM5tV3rzv-20" value="&lt;font color=&quot;#ff0000&quot;&gt;Επιλέγει Ραντεβού &lt;br&gt;με διατροφολόγο&lt;/font&gt;" style="edgeLabel;html=1;align=center;verticalAlign=middle;resizable=0;points=[];" parent="8t45LIVKKecfM5tV3rzv-11" vertex="1" connectable="0">
          <mxGeometry x="0.1689" y="1" relative="1" as="geometry">
            <mxPoint as="offset" />
          </mxGeometry>
        </mxCell>
        <mxCell id="8t45LIVKKecfM5tV3rzv-18" style="rounded=0;orthogonalLoop=1;jettySize=auto;html=1;exitX=0.5;exitY=0.5;exitDx=0;exitDy=0;exitPerimeter=0;entryX=0.002;entryY=0.385;entryDx=0;entryDy=0;entryPerimeter=0;" parent="1" source="8t45LIVKKecfM5tV3rzv-1" target="8t45LIVKKecfM5tV3rzv-15" edge="1">
          <mxGeometry relative="1" as="geometry" />
        </mxCell>
        <mxCell id="8t45LIVKKecfM5tV3rzv-19" value="Επιλέγει διατροφολόγο" style="edgeLabel;html=1;align=center;verticalAlign=middle;resizable=0;points=[];" parent="8t45LIVKKecfM5tV3rzv-18" vertex="1" connectable="0">
          <mxGeometry x="-0.1835" relative="1" as="geometry">
            <mxPoint x="25" as="offset" />
          </mxGeometry>
        </mxCell>
        <mxCell id="8t45LIVKKecfM5tV3rzv-58" value="" style="rounded=0;orthogonalLoop=1;jettySize=auto;html=1;" parent="1" source="8t45LIVKKecfM5tV3rzv-1" target="8t45LIVKKecfM5tV3rzv-35" edge="1">
          <mxGeometry relative="1" as="geometry" />
        </mxCell>
        <mxCell id="8t45LIVKKecfM5tV3rzv-60" value="Επιλέγει ημέρα" style="edgeLabel;html=1;align=center;verticalAlign=middle;resizable=0;points=[];" parent="8t45LIVKKecfM5tV3rzv-58" vertex="1" connectable="0">
          <mxGeometry x="-0.3122" y="-3" relative="1" as="geometry">
            <mxPoint y="1" as="offset" />
          </mxGeometry>
        </mxCell>
        <mxCell id="8t45LIVKKecfM5tV3rzv-59" value="Επιλέγει ώρα" style="rounded=0;orthogonalLoop=1;jettySize=auto;html=1;" parent="1" source="8t45LIVKKecfM5tV3rzv-1" target="8t45LIVKKecfM5tV3rzv-51" edge="1">
          <mxGeometry relative="1" as="geometry" />
        </mxCell>
        <mxCell id="8t45LIVKKecfM5tV3rzv-62" value="" style="rounded=0;orthogonalLoop=1;jettySize=auto;html=1;" parent="1" source="8t45LIVKKecfM5tV3rzv-1" target="8t45LIVKKecfM5tV3rzv-61" edge="1">
          <mxGeometry relative="1" as="geometry" />
        </mxCell>
        <mxCell id="8t45LIVKKecfM5tV3rzv-63" value="Επιβεβαιώνει" style="edgeLabel;html=1;align=center;verticalAlign=middle;resizable=0;points=[];" parent="8t45LIVKKecfM5tV3rzv-62" vertex="1" connectable="0">
          <mxGeometry x="-0.2018" y="-4" relative="1" as="geometry">
            <mxPoint as="offset" />
          </mxGeometry>
        </mxCell>
        <mxCell id="8t45LIVKKecfM5tV3rzv-1" value="Χρήστης" style="shape=umlActor;verticalLabelPosition=bottom;verticalAlign=top;html=1;" parent="1" vertex="1">
          <mxGeometry x="210" y="230" width="30" height="60" as="geometry" />
        </mxCell>
        <mxCell id="8t45LIVKKecfM5tV3rzv-13" value="" style="rounded=0;orthogonalLoop=1;jettySize=auto;html=1;strokeColor=#FF0000;" parent="1" source="8t45LIVKKecfM5tV3rzv-10" target="8t45LIVKKecfM5tV3rzv-12" edge="1">
          <mxGeometry relative="1" as="geometry" />
        </mxCell>
        <mxCell id="8t45LIVKKecfM5tV3rzv-10" value="&lt;font color=&quot;#ff0000&quot;&gt;Σελίδα Ραντεβού με διατροφολόγο&lt;/font&gt;" style="shape=umlBoundary;whiteSpace=wrap;html=1;strokeColor=#ff0000;" parent="1" vertex="1">
          <mxGeometry x="340" y="130" width="100" height="80" as="geometry" />
        </mxCell>
        <mxCell id="8t45LIVKKecfM5tV3rzv-16" value="" style="rounded=0;orthogonalLoop=1;jettySize=auto;html=1;entryX=0.598;entryY=-0.009;entryDx=0;entryDy=0;entryPerimeter=0;strokeColor=#FF0000;" parent="1" source="8t45LIVKKecfM5tV3rzv-12" target="8t45LIVKKecfM5tV3rzv-15" edge="1">
          <mxGeometry relative="1" as="geometry" />
        </mxCell>
        <mxCell id="8t45LIVKKecfM5tV3rzv-12" value="&lt;font color=&quot;#ff0000&quot;&gt;Εμφάνισε&lt;/font&gt;" style="ellipse;shape=umlControl;whiteSpace=wrap;html=1;strokeColor=#ff0000;" parent="1" vertex="1">
          <mxGeometry x="532.5" y="130" width="70" height="80" as="geometry" />
        </mxCell>
        <mxCell id="8t45LIVKKecfM5tV3rzv-17" value="" style="rounded=0;orthogonalLoop=1;jettySize=auto;html=1;strokeColor=#FF0000;" parent="1" source="8t45LIVKKecfM5tV3rzv-14" target="8t45LIVKKecfM5tV3rzv-12" edge="1">
          <mxGeometry relative="1" as="geometry" />
        </mxCell>
        <mxCell id="8t45LIVKKecfM5tV3rzv-14" value="&lt;font color=&quot;#ff0000&quot;&gt;Λίστα διατροφολόγων&lt;/font&gt;" style="ellipse;shape=umlEntity;whiteSpace=wrap;html=1;strokeColor=#FF0000;" parent="1" vertex="1">
          <mxGeometry x="525" y="20" width="85" height="80" as="geometry" />
        </mxCell>
        <mxCell id="8t45LIVKKecfM5tV3rzv-15" value="&lt;font color=&quot;#ff0000&quot;&gt;Σελίδα λίστας με διατροφολόγους&lt;/font&gt;" style="shape=umlBoundary;whiteSpace=wrap;html=1;strokeColor=#FF0000;" parent="1" vertex="1">
          <mxGeometry x="500" y="230" width="110" height="90" as="geometry" />
        </mxCell>
        <mxCell id="8t45LIVKKecfM5tV3rzv-28" value="" style="rounded=0;orthogonalLoop=1;jettySize=auto;html=1;exitX=0.999;exitY=0.488;exitDx=0;exitDy=0;exitPerimeter=0;strokeColor=#FF0000;" parent="1" source="8t45LIVKKecfM5tV3rzv-15" target="8t45LIVKKecfM5tV3rzv-27" edge="1">
          <mxGeometry relative="1" as="geometry">
            <mxPoint x="693.099030975708" y="208.00319074045683" as="sourcePoint" />
          </mxGeometry>
        </mxCell>
        <mxCell id="8t45LIVKKecfM5tV3rzv-36" value="" style="rounded=0;orthogonalLoop=1;jettySize=auto;html=1;strokeColor=#FF0000;" parent="1" source="8t45LIVKKecfM5tV3rzv-26" target="8t45LIVKKecfM5tV3rzv-34" edge="1">
          <mxGeometry relative="1" as="geometry" />
        </mxCell>
        <mxCell id="8t45LIVKKecfM5tV3rzv-26" value="&lt;font color=&quot;#ff0000&quot;&gt;Σελίδα λεπτομερειών διατροφολόγου&lt;/font&gt;" style="shape=umlBoundary;whiteSpace=wrap;html=1;strokeColor=#FF0000;" parent="1" vertex="1">
          <mxGeometry x="770" y="230" width="105" height="90" as="geometry" />
        </mxCell>
        <mxCell id="8t45LIVKKecfM5tV3rzv-30" value="" style="rounded=0;orthogonalLoop=1;jettySize=auto;html=1;strokeColor=#FF0000;" parent="1" source="8t45LIVKKecfM5tV3rzv-27" target="8t45LIVKKecfM5tV3rzv-29" edge="1">
          <mxGeometry relative="1" as="geometry" />
        </mxCell>
        <mxCell id="8t45LIVKKecfM5tV3rzv-33" value="" style="rounded=0;orthogonalLoop=1;jettySize=auto;html=1;strokeColor=#FF0000;" parent="1" source="8t45LIVKKecfM5tV3rzv-27" target="8t45LIVKKecfM5tV3rzv-26" edge="1">
          <mxGeometry relative="1" as="geometry" />
        </mxCell>
        <mxCell id="8t45LIVKKecfM5tV3rzv-27" value="&lt;font color=&quot;#ff0000&quot;&gt;Εμφάσνισε&lt;/font&gt;" style="ellipse;shape=umlControl;whiteSpace=wrap;html=1;strokeColor=#FF0000;" parent="1" vertex="1">
          <mxGeometry x="650" y="235" width="70" height="80" as="geometry" />
        </mxCell>
        <mxCell id="8t45LIVKKecfM5tV3rzv-29" value="&lt;font color=&quot;#ff0000&quot;&gt;Λίστα διατροφολόγων&lt;/font&gt;" style="ellipse;shape=umlEntity;whiteSpace=wrap;html=1;strokeColor=#FF0000;" parent="1" vertex="1">
          <mxGeometry x="642.5" y="130" width="85" height="80" as="geometry" />
        </mxCell>
        <mxCell id="8t45LIVKKecfM5tV3rzv-37" value="" style="rounded=0;orthogonalLoop=1;jettySize=auto;html=1;strokeColor=#FF0000;" parent="1" source="8t45LIVKKecfM5tV3rzv-34" target="8t45LIVKKecfM5tV3rzv-35" edge="1">
          <mxGeometry relative="1" as="geometry" />
        </mxCell>
        <mxCell id="9QLDLhwdELbTGxiLSMfI-1" value="Ναι" style="edgeLabel;html=1;align=center;verticalAlign=middle;resizable=0;points=[];fontColor=#FF0000;" vertex="1" connectable="0" parent="8t45LIVKKecfM5tV3rzv-37">
          <mxGeometry x="-0.4865" y="-2" relative="1" as="geometry">
            <mxPoint as="offset" />
          </mxGeometry>
        </mxCell>
        <mxCell id="9QLDLhwdELbTGxiLSMfI-9" value="" style="edgeStyle=orthogonalEdgeStyle;rounded=0;orthogonalLoop=1;jettySize=auto;html=1;" edge="1" parent="1" source="8t45LIVKKecfM5tV3rzv-34" target="8t45LIVKKecfM5tV3rzv-15">
          <mxGeometry relative="1" as="geometry">
            <Array as="points">
              <mxPoint x="1025" y="220" />
              <mxPoint x="555" y="220" />
            </Array>
          </mxGeometry>
        </mxCell>
        <mxCell id="9QLDLhwdELbTGxiLSMfI-10" value="Όχι" style="edgeLabel;html=1;align=center;verticalAlign=middle;resizable=0;points=[];" vertex="1" connectable="0" parent="9QLDLhwdELbTGxiLSMfI-9">
          <mxGeometry x="-0.7944" y="-1" relative="1" as="geometry">
            <mxPoint as="offset" />
          </mxGeometry>
        </mxCell>
        <mxCell id="8t45LIVKKecfM5tV3rzv-34" value="&lt;font color=&quot;#ff0000&quot;&gt;Κλεισίμο ραντεβού&lt;/font&gt;" style="ellipse;shape=umlControl;whiteSpace=wrap;html=1;strokeColor=#FF0000;" parent="1" vertex="1">
          <mxGeometry x="990" y="235" width="70" height="80" as="geometry" />
        </mxCell>
        <mxCell id="8t45LIVKKecfM5tV3rzv-41" value="" style="edgeStyle=orthogonalEdgeStyle;rounded=0;orthogonalLoop=1;jettySize=auto;html=1;strokeColor=#FF0000;" parent="1" source="8t45LIVKKecfM5tV3rzv-35" target="8t45LIVKKecfM5tV3rzv-39" edge="1">
          <mxGeometry relative="1" as="geometry" />
        </mxCell>
        <mxCell id="8t45LIVKKecfM5tV3rzv-35" value="&lt;font color=&quot;#ff0000&quot;&gt;Σελίδα επιλογής ημέρας&amp;nbsp;&lt;/font&gt;" style="shape=umlBoundary;whiteSpace=wrap;html=1;strokeColor=#FF0000;" parent="1" vertex="1">
          <mxGeometry x="750" y="550" width="100" height="80" as="geometry" />
        </mxCell>
        <mxCell id="8t45LIVKKecfM5tV3rzv-42" value="" style="edgeStyle=orthogonalEdgeStyle;rounded=0;orthogonalLoop=1;jettySize=auto;html=1;strokeColor=#FF0000;" parent="1" source="8t45LIVKKecfM5tV3rzv-39" target="8t45LIVKKecfM5tV3rzv-40" edge="1">
          <mxGeometry relative="1" as="geometry" />
        </mxCell>
        <mxCell id="8t45LIVKKecfM5tV3rzv-39" value="&lt;font color=&quot;#ff0000&quot;&gt;Επιλογή ημέρας&lt;/font&gt;" style="ellipse;shape=umlControl;whiteSpace=wrap;html=1;strokeColor=#FF0000;" parent="1" vertex="1">
          <mxGeometry x="625" y="550" width="70" height="80" as="geometry" />
        </mxCell>
        <mxCell id="8t45LIVKKecfM5tV3rzv-44" value="" style="rounded=0;orthogonalLoop=1;jettySize=auto;html=1;entryX=0.5;entryY=0;entryDx=0;entryDy=0;endArrow=classic;endFill=1;strokeColor=#FF0000;" parent="1" source="8t45LIVKKecfM5tV3rzv-40" target="8t45LIVKKecfM5tV3rzv-43" edge="1">
          <mxGeometry relative="1" as="geometry">
            <mxPoint x="435" y="440" as="targetPoint" />
          </mxGeometry>
        </mxCell>
        <mxCell id="8t45LIVKKecfM5tV3rzv-46" value="οχι" style="rounded=0;orthogonalLoop=1;jettySize=auto;html=1;" parent="1" source="8t45LIVKKecfM5tV3rzv-40" target="8t45LIVKKecfM5tV3rzv-45" edge="1">
          <mxGeometry x="-0.2488" y="-4" relative="1" as="geometry">
            <mxPoint as="offset" />
          </mxGeometry>
        </mxCell>
        <mxCell id="8t45LIVKKecfM5tV3rzv-53" value="&lt;font color=&quot;#ff0000&quot;&gt;ναι&lt;/font&gt;" style="edgeStyle=orthogonalEdgeStyle;rounded=0;orthogonalLoop=1;jettySize=auto;html=1;strokeColor=#FF0000;" parent="1" source="8t45LIVKKecfM5tV3rzv-40" target="8t45LIVKKecfM5tV3rzv-51" edge="1">
          <mxGeometry relative="1" as="geometry">
            <mxPoint x="310" y="590" as="targetPoint" />
          </mxGeometry>
        </mxCell>
        <mxCell id="8t45LIVKKecfM5tV3rzv-40" value="&lt;font color=&quot;#ff0000&quot;&gt;Υπάρχει διαθέσιμο ραντεβού για την ημέρα;&lt;/font&gt;" style="ellipse;shape=umlControl;whiteSpace=wrap;html=1;strokeColor=#FF0000;" parent="1" vertex="1">
          <mxGeometry x="490" y="540" width="90" height="100" as="geometry" />
        </mxCell>
        <mxCell id="8t45LIVKKecfM5tV3rzv-43" value="&lt;font color=&quot;#ff0000&quot;&gt;Πρόγραμμα διατροφολόγου&lt;/font&gt;" style="ellipse;shape=umlEntity;whiteSpace=wrap;html=1;strokeColor=#FF0000;" parent="1" vertex="1">
          <mxGeometry x="495" y="670" width="80" height="80" as="geometry" />
        </mxCell>
        <mxCell id="8t45LIVKKecfM5tV3rzv-49" value="" style="rounded=0;orthogonalLoop=1;jettySize=auto;html=1;" parent="1" source="8t45LIVKKecfM5tV3rzv-45" target="8t45LIVKKecfM5tV3rzv-47" edge="1">
          <mxGeometry relative="1" as="geometry" />
        </mxCell>
        <mxCell id="8t45LIVKKecfM5tV3rzv-45" value="&lt;i&gt;&amp;nbsp;Σελίδα σφάλματος - μη διαθέσιμη ημέρα&lt;/i&gt;" style="shape=umlBoundary;whiteSpace=wrap;html=1;" parent="1" vertex="1">
          <mxGeometry x="660" y="350" width="100" height="80" as="geometry" />
        </mxCell>
        <mxCell id="8t45LIVKKecfM5tV3rzv-50" value="" style="rounded=0;orthogonalLoop=1;jettySize=auto;html=1;" parent="1" source="8t45LIVKKecfM5tV3rzv-47" target="8t45LIVKKecfM5tV3rzv-15" edge="1">
          <mxGeometry relative="1" as="geometry" />
        </mxCell>
        <mxCell id="8t45LIVKKecfM5tV3rzv-47" value="Εμφάνισε" style="ellipse;shape=umlControl;whiteSpace=wrap;html=1;" parent="1" vertex="1">
          <mxGeometry x="522.5" y="350" width="70" height="80" as="geometry" />
        </mxCell>
        <mxCell id="8t45LIVKKecfM5tV3rzv-56" value="" style="edgeStyle=orthogonalEdgeStyle;rounded=0;orthogonalLoop=1;jettySize=auto;html=1;strokeColor=#FF0000;" parent="1" source="8t45LIVKKecfM5tV3rzv-51" target="8t45LIVKKecfM5tV3rzv-55" edge="1">
          <mxGeometry relative="1" as="geometry" />
        </mxCell>
        <mxCell id="8t45LIVKKecfM5tV3rzv-51" value="&lt;font color=&quot;#ff0000&quot;&gt;Σελίδα επιλογής διαθέσιμης ώρας&lt;/font&gt;" style="shape=umlBoundary;whiteSpace=wrap;html=1;strokeColor=#FF0000;" parent="1" vertex="1">
          <mxGeometry x="355" y="550" width="100" height="80" as="geometry" />
        </mxCell>
        <mxCell id="8t45LIVKKecfM5tV3rzv-64" value="" style="edgeStyle=orthogonalEdgeStyle;rounded=0;orthogonalLoop=1;jettySize=auto;html=1;strokeColor=#FF0000;" parent="1" source="8t45LIVKKecfM5tV3rzv-55" target="8t45LIVKKecfM5tV3rzv-61" edge="1">
          <mxGeometry relative="1" as="geometry" />
        </mxCell>
        <mxCell id="8t45LIVKKecfM5tV3rzv-55" value="&lt;font color=&quot;#ff0000&quot;&gt;Επιλογή ώρας&lt;/font&gt;" style="ellipse;shape=umlControl;whiteSpace=wrap;html=1;strokeColor=#FF0000;" parent="1" vertex="1">
          <mxGeometry x="260" y="550" width="70" height="80" as="geometry" />
        </mxCell>
        <mxCell id="8t45LIVKKecfM5tV3rzv-66" value="" style="rounded=0;orthogonalLoop=1;jettySize=auto;html=1;strokeColor=#FF0000;" parent="1" source="8t45LIVKKecfM5tV3rzv-61" target="8t45LIVKKecfM5tV3rzv-65" edge="1">
          <mxGeometry relative="1" as="geometry" />
        </mxCell>
        <mxCell id="8t45LIVKKecfM5tV3rzv-61" value="&lt;font color=&quot;#ff0000&quot;&gt;Μήνυμα επιπβεβαίωσης ραντεβού&lt;/font&gt;" style="shape=umlBoundary;whiteSpace=wrap;html=1;strokeColor=#FF0000;" parent="1" vertex="1">
          <mxGeometry x="131.25" y="550" width="100" height="80" as="geometry" />
        </mxCell>
        <mxCell id="8t45LIVKKecfM5tV3rzv-67" value="" style="rounded=0;orthogonalLoop=1;jettySize=auto;html=1;" parent="1" source="8t45LIVKKecfM5tV3rzv-65" target="8t45LIVKKecfM5tV3rzv-15" edge="1">
          <mxGeometry relative="1" as="geometry" />
        </mxCell>
        <mxCell id="8t45LIVKKecfM5tV3rzv-68" value="οχι" style="edgeLabel;html=1;align=center;verticalAlign=middle;resizable=0;points=[];" parent="8t45LIVKKecfM5tV3rzv-67" vertex="1" connectable="0">
          <mxGeometry x="-0.7044" relative="1" as="geometry">
            <mxPoint as="offset" />
          </mxGeometry>
        </mxCell>
        <mxCell id="8t45LIVKKecfM5tV3rzv-70" value="&lt;font color=&quot;#ff0000&quot;&gt;ναι&lt;/font&gt;" style="edgeStyle=orthogonalEdgeStyle;rounded=0;orthogonalLoop=1;jettySize=auto;html=1;strokeColor=#FF0000;" parent="1" source="8t45LIVKKecfM5tV3rzv-65" target="8t45LIVKKecfM5tV3rzv-69" edge="1">
          <mxGeometry relative="1" as="geometry" />
        </mxCell>
        <mxCell id="8t45LIVKKecfM5tV3rzv-65" value="&lt;font color=&quot;#ff0000&quot;&gt;Επιβεβαίωση;&lt;/font&gt;" style="ellipse;shape=umlControl;whiteSpace=wrap;html=1;strokeColor=#FF0000;" parent="1" vertex="1">
          <mxGeometry x="10" y="310" width="80" height="90" as="geometry" />
        </mxCell>
        <mxCell id="8t45LIVKKecfM5tV3rzv-72" value="" style="edgeStyle=orthogonalEdgeStyle;rounded=0;orthogonalLoop=1;jettySize=auto;html=1;strokeColor=#FF0000;" parent="1" source="8t45LIVKKecfM5tV3rzv-69" target="8t45LIVKKecfM5tV3rzv-71" edge="1">
          <mxGeometry relative="1" as="geometry" />
        </mxCell>
        <mxCell id="-Gl4ABIStuEA5KF3foh7-1" value="" style="edgeStyle=none;rounded=0;orthogonalLoop=1;jettySize=auto;html=1;strokeColor=#FF0000;fontColor=#FF0000;" parent="1" source="8t45LIVKKecfM5tV3rzv-69" target="8t45LIVKKecfM5tV3rzv-75" edge="1">
          <mxGeometry relative="1" as="geometry" />
        </mxCell>
        <mxCell id="8t45LIVKKecfM5tV3rzv-69" value="&lt;font color=&quot;#ff0000&quot;&gt;Προσθήκη ραντεβού&lt;/font&gt;" style="ellipse;shape=umlControl;whiteSpace=wrap;html=1;strokeColor=#FF0000;" parent="1" vertex="1">
          <mxGeometry x="15" y="650" width="70" height="80" as="geometry" />
        </mxCell>
        <mxCell id="8t45LIVKKecfM5tV3rzv-71" value="&lt;font color=&quot;#ff0000&quot;&gt;Λίστα &quot;Τα ραντεβού μου&quot;&lt;/font&gt;" style="ellipse;shape=umlEntity;whiteSpace=wrap;html=1;strokeColor=#FF0000;" parent="1" vertex="1">
          <mxGeometry x="131.25" y="650" width="80" height="80" as="geometry" />
        </mxCell>
        <mxCell id="8t45LIVKKecfM5tV3rzv-78" value="" style="edgeStyle=orthogonalEdgeStyle;rounded=0;orthogonalLoop=1;jettySize=auto;html=1;strokeColor=#FF0000;" parent="1" source="8t45LIVKKecfM5tV3rzv-75" target="8t45LIVKKecfM5tV3rzv-77" edge="1">
          <mxGeometry relative="1" as="geometry" />
        </mxCell>
        <mxCell id="8t45LIVKKecfM5tV3rzv-75" value="&lt;font color=&quot;#ff0000&quot;&gt;Εμφάνισε&lt;/font&gt;" style="ellipse;shape=umlControl;whiteSpace=wrap;html=1;strokeColor=#FF0000;" parent="1" vertex="1">
          <mxGeometry x="15" y="760" width="70" height="80" as="geometry" />
        </mxCell>
        <mxCell id="8t45LIVKKecfM5tV3rzv-77" value="&lt;font color=&quot;#ff0000&quot;&gt;Σελίδα Τα ραντεβού μου&lt;/font&gt;" style="shape=umlBoundary;whiteSpace=wrap;html=1;strokeColor=#FF0000;" parent="1" vertex="1">
          <mxGeometry x="121.25" y="760" width="100" height="80" as="geometry" />
        </mxCell>
      </root>
    </mxGraphModel>
  </diagram>
</mxfile>
